<?xml version="1.0" encoding="utf-8"?><svg xmlns="http://www.w3.org/2000/svg" xmlns:xlink="http://www.w3.org/1999/xlink"><symbol fill="currentColor" viewBox="0 0 36 36" id="language" xmlns="http://www.w3.org/2000/svg"><path d="M30 3H14v5h2V5h14c.6 0 1 .4 1 1v11c0 .6-.4 1-1 1H17v7h-5.3L8 27.9V25H5c-.6 0-1-.4-1-1V13c0-.6.4-1 1-1h13v-2H5c-1.7 0-3 1.3-3 3v11c0 1.7 1.3 3 3 3h1v5.1l6.3-5.1H19v-7h11c1.7 0 3-1.3 3-3V6c0-1.7-1.3-3-3-3z" class="aclr-i-outline aclr-i-outline-path-1"/><path d="M6.2 22.9h2.4l.6-1.6h3.1l.6 1.6h2.4L11.9 14H9.5l-3.3 8.9zm4.5-6.4l1 3.1h-2l1-3.1z" class="aclr-i-outline aclr-i-outline-path-2"/><path d="M20 17c1.1 0 2.6-.3 4-1 1.4.7 3 1 4 1v-2s-1 0-2.1-.4c1.2-1.2 2.1-3 2.1-5.6V8h-3V6h-2v2h-3v2h5.9c-.2 1.8-1 2.9-1.9 3.6-.6-.5-1.2-1.2-1.6-2.1h-2.1c.4 1.3 1 2.3 1.8 3.1-1 .4-1.9.4-2.1.4v2z" class="aclr-i-outline aclr-i-outline-path-3"/><path fill="none" d="M0 0h36v36H0z"/></symbol><symbol fill="currentColor" viewBox="0 0 210 210" id="menu" xmlns="http://www.w3.org/2000/svg"><path d="M195 0h-20c-8.284 0-15 6.716-15 15v20c0 8.284 6.716 15 15 15h20c8.284 0 15-6.716 15-15V15c0-8.284-6.716-15-15-15zM115 0H95c-8.284 0-15 6.716-15 15v20c0 8.284 6.716 15 15 15h20c8.284 0 15-6.716 15-15V15c0-8.284-6.716-15-15-15zM35 0H15C6.716 0 0 6.716 0 15v20c0 8.284 6.716 15 15 15h20c8.284 0 15-6.716 15-15V15c0-8.284-6.716-15-15-15zM195 160h-20c-8.284 0-15 6.716-15 15v20c0 8.284 6.716 15 15 15h20c8.284 0 15-6.716 15-15v-20c0-8.284-6.716-15-15-15zM115 160H95c-8.284 0-15 6.716-15 15v20c0 8.284 6.716 15 15 15h20c8.284 0 15-6.716 15-15v-20c0-8.284-6.716-15-15-15zM35 160H15c-8.284 0-15 6.716-15 15v20c0 8.284 6.716 15 15 15h20c8.284 0 15-6.716 15-15v-20c0-8.284-6.716-15-15-15zM195 80h-20c-8.284 0-15 6.716-15 15v20c0 8.284 6.716 15 15 15h20c8.284 0 15-6.716 15-15V95c0-8.284-6.716-15-15-15zM115 80H95c-8.284 0-15 6.716-15 15v20c0 8.284 6.716 15 15 15h20c8.284 0 15-6.716 15-15V95c0-8.284-6.716-15-15-15zM35 80H15C6.716 80 0 86.716 0 95v20c0 8.284 6.716 15 15 15h20c8.284 0 15-6.716 15-15V95c0-8.284-6.716-15-15-15z"/></symbol></svg>