<?xml version="1.0" encoding="utf-8"?><svg xmlns="http://www.w3.org/2000/svg" xmlns:xlink="http://www.w3.org/1999/xlink"><symbol viewBox="0 0 16 16" fill="none" id="facebook-review" xmlns="http://www.w3.org/2000/svg"><path fill="#1877F2" d="M15 8a7 7 0 0 0-7-7 7 7 0 0 0-1.094 13.915v-4.892H5.13V8h1.777V6.458c0-1.754 1.045-2.724 2.644-2.724.766 0 1.567.137 1.567.137v1.723h-.883c-.87 0-1.14.54-1.14 1.093V8h1.941l-.31 2.023H9.094v4.892A7.001 7.001 0 0 0 15 8z"/><path fill="#fff" d="M10.725 10.023 11.035 8H9.094V6.687c0-.553.27-1.093 1.14-1.093h.883V3.87s-.801-.137-1.567-.137c-1.6 0-2.644.97-2.644 2.724V8H5.13v2.023h1.777v4.892a7.037 7.037 0 0 0 2.188 0v-4.892h1.63z"/></symbol><symbol viewBox="0 0 16 16" fill="none" id="google-review" xmlns="http://www.w3.org/2000/svg"><path fill="#4285F4" d="M14.9 8.161c0-.476-.039-.954-.121-1.422h-6.64v2.695h3.802a3.24 3.24 0 0 1-1.407 2.127v1.75h2.269c1.332-1.22 2.097-3.02 2.097-5.15z"/><path fill="#34A853" d="M8.14 15c1.898 0 3.499-.62 4.665-1.69l-2.268-1.749c-.631.427-1.446.669-2.395.669-1.836 0-3.393-1.232-3.952-2.888H1.85v1.803A7.044 7.044 0 0 0 8.14 15z"/><path fill="#FBBC04" d="M4.187 9.342a4.17 4.17 0 0 1 0-2.68V4.859H1.849a6.97 6.97 0 0 0 0 6.286l2.338-1.803z"/><path fill="#EA4335" d="M8.14 3.77a3.837 3.837 0 0 1 2.7 1.05l2.01-1.999a6.786 6.786 0 0 0-4.71-1.82 7.042 7.042 0 0 0-6.29 3.858L4.186 6.66c.556-1.658 2.116-2.89 3.952-2.89z"/></symbol></svg>